<svg width="97" height="99" viewBox="0 0 97 99" fill="none" xmlns="http://www.w3.org/2000/svg">
<g clip-path="url(#clip0_3872_1018)">
<path fill-rule="evenodd" clip-rule="evenodd" d="M15.5354 22.5021H15.091C13.6787 22.5021 12.5352 23.6519 12.5352 25.064V29.0417C12.5352 30.4609 13.6788 31.6071 15.091 31.6071H15.5354V46.085C15.5354 55.9081 23.4063 63.9085 33.2026 64.0393L43.9873 64.1878V64.6056C43.9873 66.0248 45.1343 67.171 46.5431 67.171L50.5147 67.1641C51.9271 67.1641 53.0706 66.0143 53.0706 64.6021V64.3087L57.9344 64.3743C58.6922 64.3846 59.295 64.9992 59.295 65.7554V74.7847H58.83C57.4142 74.7847 56.2707 75.9345 56.2707 77.3502V81.3278C56.2707 82.7435 57.4143 83.8898 58.83 83.8898H59.295V91.7071C59.295 92.4702 59.9116 93.0882 60.6729 93.0882H80.1249C80.8861 93.0882 81.5027 92.4702 81.5027 91.7071V83.8898H81.9092C83.3215 83.8898 84.4685 82.7434 84.4685 81.3278V77.3502C84.4685 75.9345 83.3214 74.7847 81.9092 74.7847H81.5027V60.2105C81.5027 50.391 73.6284 42.3905 63.832 42.2562L53.05 42.1112V41.4655C53.05 40.0463 51.9029 38.9 50.4941 38.9L46.5259 38.907C45.1102 38.907 43.9666 40.0568 43.9666 41.4689V41.9869L39.0994 41.9247C38.3485 41.9109 37.7422 41.2963 37.7422 40.5436V31.6079H38.1728C39.5817 31.6079 40.7287 30.4616 40.7287 29.0425V25.0648C40.7287 23.6526 39.5816 22.5029 38.1728 22.5029H37.7422V14.3645C37.7422 13.6015 37.1256 12.9834 36.3644 12.9834H16.9123C16.1511 12.9834 15.5345 13.6015 15.5345 14.3645L15.5354 22.5021ZM78.7477 83.89H62.0513V90.326H78.7477V83.89ZM81.7135 77.5471H59.0269V81.1277H81.7135V77.5471ZM53.0544 44.8727L53.0682 61.5462L57.9767 61.6118C60.2364 61.6429 62.0517 63.4867 62.0517 65.7552V74.7846H78.748V60.2104C78.748 51.8994 72.0862 45.1288 63.795 45.0174L53.0544 44.8727ZM50.3159 64.4022L50.2952 41.6649L46.7232 41.6684L46.7438 64.4056L50.3159 64.4022ZM34.9872 31.6067H18.2909V46.0845C18.2909 54.3955 24.9493 61.1635 33.2439 61.2775L43.9844 61.4225L43.9707 44.749L39.0621 44.6834C36.8024 44.6523 34.9871 42.8085 34.9871 40.5434L34.9872 31.6067ZM37.9737 25.2638H15.2907V28.8444H37.9737V25.2638ZM18.2915 22.5015H34.9879V15.7443H18.2915V22.5015Z" fill="black"/>
</g>
<defs>
<clipPath id="clip0_3872_1018">
<rect width="97" height="99" fill="white"/>
</clipPath>
</defs>
</svg>
