<svg width="98" height="99" viewBox="0 0 98 99" fill="none" xmlns="http://www.w3.org/2000/svg">
<g clip-path="url(#clip0_3872_1052)">
<path d="M89.369 50.9006H8.63033C7.86122 50.9006 7.23828 51.5243 7.23828 52.2942C7.23828 53.0642 7.86122 53.6878 8.63033 53.6878H13.7808V56.1231C13.7878 62.2932 16.2413 68.2091 20.5984 72.5705C24.9554 76.9324 30.8643 79.3886 37.0276 79.3955H37.8872V91.7982C37.8872 92.1675 38.0334 92.5228 38.2944 92.7841C38.5554 93.0455 38.9103 93.1918 39.2793 93.1918H58.7153C59.0842 93.1918 59.4357 93.0454 59.6968 92.7841C59.9578 92.5228 60.1074 92.1675 60.1074 91.7982V79.3955H60.9705C67.1338 79.3885 73.0432 76.9324 77.3997 72.5705C81.7568 68.2086 84.2103 62.2932 84.2172 56.1231V53.6878H89.3678C90.1369 53.6878 90.7598 53.0642 90.7598 52.2942C90.7598 51.5243 90.1369 50.9006 89.3678 50.9006H89.369ZM57.3239 90.4088H40.6745V79.3993H57.3239V90.4088ZM81.4336 56.1236C81.4267 61.555 79.269 66.7603 75.4339 70.599C71.5953 74.4418 66.3956 76.6018 60.9709 76.6088H58.9802C58.8097 76.5356 58.6183 76.5356 58.4478 76.6088H39.5471C39.3766 76.5356 39.1852 76.5356 39.0147 76.6088H37.0275C31.602 76.6018 26.4025 74.4418 22.5645 70.599C18.7294 66.7596 16.5717 61.5543 16.5647 56.1236V53.6882H81.4336L81.4336 56.1236Z" fill="black"/>
<path d="M23.6655 49.2276H74.3359C75.105 49.2276 75.728 48.6039 75.728 47.834C75.728 47.064 75.105 46.4404 74.3359 46.4404H63.1194V41.6953H64.1912C64.9603 41.6953 65.5833 41.0716 65.5833 40.3017C65.5833 39.5317 64.9603 38.9081 64.1912 38.9081H59.2495C58.4804 38.9081 57.8574 39.5317 57.8574 40.3017C57.8574 41.0716 58.4804 41.6953 59.2495 41.6953H60.3353V46.4404H49.5749V26.3033C49.5749 20.9519 53.9042 16.6182 59.2493 16.6182C64.5913 16.6182 68.9237 20.9523 68.9237 26.3033V29.8569C68.9237 30.6269 69.5466 31.2505 70.3157 31.2505C71.0848 31.2505 71.7077 30.6269 71.7077 29.8569V26.3033C71.7077 19.412 66.1291 13.8311 59.2493 13.8311C52.3694 13.8311 46.7908 19.4123 46.7908 26.3033V46.4404H36.1382V41.6953H37.2101H37.2066C37.9757 41.6953 38.5986 41.0716 38.5986 40.3017C38.5986 39.5317 37.9757 38.9081 37.2066 38.9081H32.2683C31.4992 38.9081 30.8762 39.5317 30.8762 40.3017C30.8762 41.0716 31.4992 41.6953 32.2683 41.6953H33.3541V46.4404H23.6655C22.8964 46.4404 22.2734 47.064 22.2734 47.834C22.2734 48.6039 22.8964 49.2276 23.6655 49.2276Z" fill="black"/>
<path d="M24.1557 60.2166H27.1834C27.9525 60.2166 28.5754 59.593 28.5754 58.823C28.5754 58.0531 27.9525 57.4294 27.1834 57.4294H24.1557C23.3866 57.4294 22.7637 58.0531 22.7637 58.823C22.7637 59.593 23.3866 60.2166 24.1557 60.2166Z" fill="black"/>
<path d="M32.269 60.2166H63.3118C64.0809 60.2166 64.7039 59.593 64.7039 58.823C64.7039 58.0531 64.0809 57.4294 63.3118 57.4294H32.269C31.4999 57.4294 30.877 58.0531 30.877 58.823C30.877 59.593 31.4999 60.2166 32.269 60.2166Z" fill="black"/>
</g>
<defs>
<clipPath id="clip0_3872_1052">
<rect width="98" height="99" fill="white"/>
</clipPath>
</defs>
</svg>
