<svg width="82" height="89" viewBox="0 0 82 89" fill="none" xmlns="http://www.w3.org/2000/svg">
<g clip-path="url(#clip0_887_1143)">
<path d="M28.1866 37.8623C28.1866 37.2167 27.6654 36.6937 27.0218 36.6937H25.8571V28.5132C25.8571 27.2248 26.9024 26.176 28.1866 26.176H36.3404V27.3446C36.3404 27.9902 36.8616 28.5132 37.5052 28.5132H42.1643C42.8078 28.5132 43.329 27.9902 43.329 27.3446V26.176H54.9768C55.6203 26.176 56.1415 25.6531 56.1415 25.0074V10.9843C56.1415 10.3386 55.6203 9.8157 54.9768 9.8157H43.329V8.64711C43.329 8.00146 42.8078 7.47852 42.1643 7.47852H37.5052C36.8616 7.47852 36.3404 8.00146 36.3404 8.64711V9.8157H28.1866C17.9105 9.8157 9.55025 18.2034 9.55025 28.5132V36.6937H8.38548C7.74194 36.6937 7.2207 37.2167 7.2207 37.8623V42.5367C7.2207 43.1823 7.74194 43.7053 8.38548 43.7053H9.55025V81.1002C9.55025 81.7459 10.0715 82.2688 10.715 82.2688H24.6923C25.3358 82.2688 25.8571 81.7459 25.8571 81.1002V68.2453C25.8571 67.9357 25.7348 67.6377 25.5164 67.4185L22.0221 63.9128C21.6668 63.5563 21.1252 63.4687 20.6767 63.6936L19.94 64.0618L21.6726 61.4529L24.3225 62.341C24.6777 62.4578 25.0679 62.3994 25.3707 62.1803C25.6735 61.9612 25.8541 61.6077 25.8541 61.2338V43.7045H27.0189C27.6624 43.7045 28.1836 43.1816 28.1836 42.5359V37.8615L28.1866 37.8623ZM53.8116 12.1533V23.8392H43.329V12.1533H53.8116ZM38.6699 9.81608H40.9995V26.1764H38.6699V9.81608ZM11.8798 28.5136C11.8798 19.4924 19.1946 12.1533 28.1866 12.1533H36.3404V23.8392H28.1866C25.6183 23.8392 23.5275 25.9368 23.5275 28.5136V36.6941H11.8798V28.5136ZM23.5275 59.6127L21.5649 58.9583C21.0669 58.7918 20.5166 58.9817 20.2254 59.4199L15.5663 66.4314C15.2751 66.8726 15.313 67.454 15.6624 67.8513C16.0118 68.2485 16.5826 68.3596 17.0572 68.123L20.965 66.1626L23.5246 68.7306V79.9319H11.8799V43.7052H23.5276L23.5275 59.6127ZM25.8571 41.3677H9.55025V39.0305H25.8571V41.3677Z" fill="black"/>
<path d="M30.1763 67.419C29.722 66.9632 28.9824 66.9632 28.5282 67.419C28.074 67.8747 28.0739 68.6168 28.5282 69.0725L30.8577 71.4097C31.0849 71.6376 31.3819 71.7515 31.6818 71.7515C31.9788 71.7515 32.2759 71.6376 32.5059 71.4097C32.9602 70.954 32.9602 70.2119 32.5059 69.7562L30.1763 67.419Z" fill="black"/>
<path d="M35.176 63.5714H32.8464C32.2029 63.5714 31.6816 64.0943 31.6816 64.74C31.6816 65.3856 32.2029 65.9086 32.8464 65.9086H35.176C35.8195 65.9086 36.3407 65.3856 36.3407 64.74C36.3407 64.0943 35.8195 63.5714 35.176 63.5714Z" fill="black"/>
<path d="M30.8577 58.0702L28.5282 60.4074C28.0739 60.8632 28.0739 61.6053 28.5282 62.061C28.7553 62.2888 29.0523 62.4028 29.3523 62.4028C29.6493 62.4028 29.9463 62.2888 30.1764 62.061L32.5059 59.7238C32.9602 59.268 32.9602 58.5259 32.5059 58.0702C32.0517 57.6145 31.3119 57.6145 30.8577 58.0702Z" fill="black"/>
<path d="M73.7531 75.4564L64.0592 65.7308L66.5285 63.2534C66.9827 62.7976 66.9827 62.0555 66.5285 61.5998L60.2562 55.3069C60.8939 53.9689 60.626 52.3737 59.5748 51.3191L59.1147 50.8575C58.4566 50.1973 57.5772 49.8292 56.6454 49.8292C56.1154 49.8292 55.6029 49.946 55.137 50.171L49.2316 44.2462C48.1309 43.1418 46.6691 42.5342 45.1142 42.5342C43.5592 42.5342 42.0974 43.1418 40.9967 44.2462L36.8793 48.3771C34.608 50.6559 34.608 54.3603 36.8793 56.6392C37.0977 56.8583 37.3947 56.981 37.7034 56.981C38.0121 56.981 38.3091 56.8583 38.5275 56.6392L45.1142 50.0308L46.7624 51.6844L40.1727 58.2927C39.9543 58.5118 39.832 58.8098 39.832 59.1195C39.832 59.4292 39.9543 59.7272 40.1727 59.9463C41.3083 61.0857 42.7992 61.6554 44.2901 61.6554C45.487 61.6554 46.6837 61.2873 47.6942 60.5569C47.8631 60.9367 48.0989 61.2931 48.4076 61.6028L67.9847 81.2441C68.6661 81.9277 69.5601 82.2695 70.454 82.2695C71.3509 82.2695 72.2419 81.9277 72.9233 81.2441L73.7474 80.4173C74.4055 79.757 74.7724 78.8748 74.7724 77.9399C74.7724 77.005 74.4085 76.1227 73.7474 75.4625L73.7531 75.4564ZM62.4139 64.0802L58.6575 60.3114C58.3023 59.955 58.2149 59.4116 58.4391 58.9617L59.1613 57.5126L64.0592 62.4265L62.411 64.0801L62.4139 64.0802ZM44.2957 47.5531L37.8487 54.0212C37.2314 52.7182 37.4585 51.1085 38.533 50.0305L42.6504 45.8995C43.3085 45.2393 44.1879 44.8712 45.1198 44.8712C46.0545 44.8712 46.931 45.2364 47.5891 45.8995L53.3547 51.6841L51.7066 53.3376L45.9439 47.556C45.4896 47.1002 44.7499 47.1002 44.2957 47.556L44.2957 47.5531ZM42.7902 58.9817L48.4161 53.3374L50.0642 54.9909L46.7679 58.2981C45.6963 59.3732 44.0889 59.604 42.7902 58.9846V58.9817ZM72.1075 78.7659L71.2834 79.5927C70.8291 80.0485 70.0894 80.0485 69.6352 79.5927L50.0581 59.9514C49.6039 59.4956 49.6039 58.7535 50.0581 58.2978L55.8238 52.5133C56.0451 52.2913 56.3363 52.1715 56.6479 52.1715C56.9594 52.1715 57.2535 52.2942 57.472 52.5133L57.932 52.9749C58.2873 53.3313 58.3747 53.8747 58.1504 54.3246L56.3567 57.921C55.6812 59.2707 55.9462 60.9009 57.0119 61.9673L72.1074 77.1122C72.3287 77.3343 72.4481 77.6264 72.4481 77.939C72.4481 78.2516 72.3259 78.5468 72.1075 78.7659Z" fill="black"/>
</g>
<defs>
<clipPath id="clip0_887_1143">
<rect width="82" height="89" fill="white"/>
</clipPath>
</defs>
</svg>
