<svg width="95" height="93" viewBox="0 0 95 93" fill="none" xmlns="http://www.w3.org/2000/svg">
<g clip-path="url(#clip0_887_1106)">
<path d="M52.6073 44.8758C52.2767 44.8758 51.963 45.0306 51.7639 45.2963C51.1803 46.0767 48.2622 50.0695 48.2622 52.1247C48.2622 54.5129 50.2121 56.4537 52.6039 56.4537C54.9991 56.4537 56.9457 54.5095 56.9457 52.1247C56.9457 50.0695 54.0309 46.0734 53.4439 45.2963C53.2449 45.0306 52.9345 44.8758 52.6005 44.8758H52.6073ZM52.6073 54.3619C51.3726 54.3619 50.3672 53.3594 50.3672 52.1283C50.3672 51.3984 51.4198 49.4878 52.6073 47.7386C53.7948 49.4877 54.8474 51.3983 54.8474 52.1283C54.8474 53.3594 53.8421 54.3619 52.6073 54.3619ZM66.9921 56.8981C58.1165 56.8981 50.893 64.0998 50.893 72.9501C50.893 75.3719 51.4362 77.6694 52.401 79.728L33.705 79.7313V75.9807L41.9264 72.5868C42.7023 72.2672 43.3062 71.6651 43.6267 70.8914C43.9472 70.1178 43.9472 69.2668 43.6267 68.493C42.9621 66.8953 41.1202 66.1351 39.5211 66.7977L33.705 69.1994V68.6276C33.705 67.013 32.3894 65.7012 30.77 65.7012H29.822L29.8254 30.1803C29.8254 23.6211 35.0241 21.2902 39.4739 21.2902C43.9237 21.2902 49.1225 23.6179 49.1225 30.1803V35.6766C48.1138 36.0904 47.4053 37.0793 47.4053 38.2297C47.4053 39.7534 48.6468 40.9912 50.175 40.9912H55.0498C56.578 40.9912 57.8195 39.7534 57.8195 38.2297C57.8195 37.0793 57.1077 36.0903 56.1023 35.6766V30.1803C56.1023 25.2996 54.2502 21.1688 50.7518 18.2393C47.7426 15.7199 43.7381 14.334 39.4771 14.334C35.2162 14.334 31.2118 15.7232 28.2023 18.2393C24.7005 21.1691 22.8518 25.2997 22.8518 30.1803V65.6977H21.9038C20.2845 65.6977 18.9688 67.0096 18.9688 68.6241V79.7308H16.0169C15.9966 79.7308 15.973 79.7308 15.9528 79.7341C13.6891 79.8754 11.918 81.7591 11.918 84.0195C11.918 86.28 13.6891 88.1636 15.9528 88.3049C15.973 88.3049 15.9966 88.3083 16.0169 88.3083L62.3527 88.315C63.8236 88.759 65.3855 88.9979 67.0015 88.9979C75.8771 88.9979 83.1005 81.7961 83.1005 72.9459C83.1005 64.0962 75.8777 56.8939 67.0015 56.8939L66.9921 56.8981ZM40.3273 68.7349C40.8569 68.5163 41.4642 68.7686 41.6835 69.2967C41.788 69.5523 41.788 69.8349 41.6835 70.0905C41.5789 70.3462 41.3765 70.5446 41.1201 70.6522L28.2433 75.9703C27.9869 76.0746 27.7035 76.0746 27.4471 75.9703C27.1907 75.866 26.9917 75.6642 26.8837 75.4086C26.7791 75.1529 26.7791 74.8704 26.8837 74.6147C26.9883 74.3591 27.1907 74.1606 27.4471 74.053L40.3239 68.7349L40.3273 68.7349ZM55.0462 38.8957H50.1715C49.8037 38.8957 49.5069 38.5963 49.5069 38.233C49.5069 37.8664 49.8071 37.5704 50.1715 37.5704H55.0462C55.414 37.5704 55.7108 37.8698 55.7108 38.233C55.7108 38.5997 55.4106 38.8957 55.0462 38.8957ZM24.9468 30.1804C24.9468 25.9387 26.5357 22.3631 29.545 19.847C32.1764 17.6438 35.7017 16.4329 39.4664 16.4329C43.2347 16.4329 46.7567 17.6472 49.3879 19.847C52.3971 22.3665 53.986 25.9387 53.986 30.1804V35.4681H51.213V30.1804C51.213 26.6922 49.9209 23.8028 47.4717 21.8216C45.3767 20.1262 42.5328 19.1911 39.4629 19.1911C36.3929 19.1911 33.5456 20.1262 31.454 21.8216C29.0049 23.8028 27.7128 26.6922 27.7128 30.1804V65.6978H24.9431L24.9468 30.1804ZM21.0638 68.6273C21.0638 68.1698 21.4383 67.7965 21.8971 67.7965H30.7692C31.228 67.7965 31.6025 68.1698 31.6025 68.6273V70.067L26.6467 72.1155C25.8708 72.435 25.2668 73.0371 24.9463 73.8108C24.6259 74.5845 24.6259 75.4355 24.9463 76.2092C25.2668 76.9829 25.8707 77.585 26.6467 77.9046C27.0346 78.066 27.4428 78.1434 27.851 78.1434C28.2592 78.1434 28.6674 78.0626 29.0554 77.9046L31.6058 76.8517V79.7344L21.0703 79.7378V68.6312L21.0638 68.6273ZM16.0439 86.2129C14.9003 86.1255 14.0096 85.1702 14.0096 84.0231C14.0096 82.876 14.9002 81.9208 16.0439 81.8333L53.5888 81.8266C54.7425 83.5555 56.2269 85.049 57.9475 86.2196L16.0439 86.2129ZM52.9981 72.9501C52.9981 65.2572 59.2763 58.9975 66.9915 58.9975C74.7069 58.9975 80.985 65.2573 80.985 72.9501C80.985 74.79 80.6274 76.5459 79.9763 78.1538L76.6702 74.8607L77.7464 71.0395C78.0467 69.9227 77.6553 68.4663 76.8355 67.6489L71.2152 62.045C70.3954 61.2276 68.9313 60.8374 67.8146 61.1367L65.0347 61.8801C64.2993 62.0752 63.7831 62.5495 63.6145 63.1785C63.4458 63.8075 63.6583 64.4735 64.1947 65.0084L70.0108 70.8074C70.247 71.0429 70.3414 71.3927 70.2537 71.7156L69.5351 74.3831C69.4474 74.706 69.1944 74.9583 68.8705 75.0458L66.1953 75.7622C65.8714 75.8497 65.5239 75.7555 65.2877 75.5201L59.2254 69.4755C58.7902 69.0416 58.2303 68.8801 57.6803 69.0247C57.0427 69.1963 56.5535 69.7547 56.3376 70.5585L55.5921 73.3303C55.2918 74.4471 55.6831 75.9036 56.5029 76.7209L62.1233 82.3249C62.9431 83.1423 64.4072 83.5324 65.5239 83.2331L69.5249 82.1701L72.9255 85.5911C71.124 86.4354 69.1167 86.9062 66.9981 86.9062C59.2827 86.9062 53.0046 80.6464 53.0046 72.9536L52.9981 72.9501ZM74.8152 84.5148L70.5848 80.2597C70.3183 79.994 69.9303 79.8897 69.566 79.9839L64.9745 81.2016C64.5832 81.3059 63.8916 81.1208 63.6049 80.8349L57.9845 75.231C57.6978 74.9451 57.5122 74.2555 57.6168 73.8654L58.2578 71.4771L63.7939 76.997C64.5597 77.7606 65.6864 78.0634 66.7356 77.7841L69.4109 77.0677C70.4566 76.7885 71.2832 75.9644 71.5632 74.9216L72.2818 72.2542C72.5618 71.2114 72.2616 70.0846 71.4924 69.321L65.9563 63.8011L68.3515 63.162C68.7428 63.0578 69.4344 63.2428 69.7211 63.5287L75.3415 69.1326C75.6283 69.4185 75.8138 70.1081 75.7126 70.4848L74.4711 74.8846C74.3666 75.2512 74.4711 75.6414 74.741 75.9105L78.9782 80.1319C77.9222 81.8777 76.4952 83.3745 74.8051 84.5148L74.8152 84.5148Z" fill="black"/>
</g>
<defs>
<clipPath id="clip0_887_1106">
<rect width="95" height="93" fill="white"/>
</clipPath>
</defs>
</svg>
