<svg width="8" height="9" viewBox="0 0 8 9" fill="none" xmlns="http://www.w3.org/2000/svg">
<path d="M4.09429 8.85615L7.34458 5.60593C7.43735 5.51315 7.48828 5.38949 7.48828 5.25764C7.48828 5.12564 7.43728 5.00206 7.34458 4.90928L7.04941 4.61418C6.95677 4.52147 6.83304 4.4704 6.70112 4.4704C6.56926 4.4704 6.44136 4.52147 6.34873 4.61418L4.44843 6.51031V0.486215C4.44843 0.214608 4.2358 0 3.96412 0L3.54683 0C3.27515 0 3.04108 0.214608 3.04108 0.486215L3.04108 6.53182L1.13017 4.61425C1.03739 4.52155 0.917021 4.47047 0.785095 4.47047C0.653316 4.47047 0.531195 4.52155 0.438488 4.61425L0.144272 4.90935C0.0514923 5.00213 0.000931328 5.12571 0.000931328 5.25771C0.000931328 5.38956 0.0521507 5.51322 0.14493 5.606L3.39515 8.85622C3.48822 8.94922 3.61246 9.00036 3.74453 9C3.87704 9.00029 4.00136 8.94922 4.09429 8.85615Z" fill="#67BB22"/>
</svg>
