<svg width="48" height="47" viewBox="0 0 48 47" fill="none" xmlns="http://www.w3.org/2000/svg">
<path fill-rule="evenodd" clip-rule="evenodd" d="M33.6454 16.1092L15.7477 32.4427L14.3477 30.9086L32.2453 14.5751L33.6454 16.1092Z" fill="#036C5F"/>
<path fill-rule="evenodd" clip-rule="evenodd" d="M31.4776 15.2758C27.8699 18.5683 27.8173 24.4313 30.9047 27.8144L31.6048 28.5815L33.1389 27.1815L32.4388 26.4144C30.0947 23.8458 30.1496 19.2996 32.8777 16.8099L33.6443 16.1103L32.2443 14.5762L31.4776 15.2758Z" fill="#036C5F"/>
<path fill-rule="evenodd" clip-rule="evenodd" d="M32.8793 16.8099C29.2716 20.1023 23.4281 19.62 20.3406 16.2369L19.6406 15.4698L21.1747 14.0698L21.8748 14.8369C24.219 17.4056 28.7512 17.7654 31.4793 15.2758L32.2459 14.5761L33.646 16.1102L32.8793 16.8099Z" fill="#036C5F"/>
</svg>
