<svg width="18" height="14" viewBox="0 0 18 14" fill="none" xmlns="http://www.w3.org/2000/svg">
<path fill-rule="evenodd" clip-rule="evenodd" d="M17.6017 7.1675L0.103832 7.42184L0.0820312 5.922L17.5799 5.66766L17.6017 7.1675Z" fill="black"/>
<path fill-rule="evenodd" clip-rule="evenodd" d="M16.8312 5.67857C13.3041 5.72983 10.467 8.8735 10.515 12.1811L10.5259 12.931L12.0258 12.9092L12.0149 12.1593C11.9784 9.64802 14.1859 7.21718 16.853 7.17841L17.6025 7.16751L17.5807 5.66767L16.8312 5.67857Z" fill="black"/>
<path fill-rule="evenodd" clip-rule="evenodd" d="M16.8532 7.17844C13.3261 7.2297 10.3988 4.16979 10.3507 0.862225L10.3398 0.112305L11.8397 0.0905039L11.8506 0.840425C11.8871 3.35174 14.1643 5.71736 16.8314 5.67859L17.581 5.6677L17.6028 7.16754L16.8532 7.17844Z" fill="black"/>
</svg>
