<svg width="161" height="40" viewBox="0 0 161 40" fill="none" xmlns="http://www.w3.org/2000/svg">
<path d="M53.37 30H49.98V9.9H58.2C62.43 9.9 65.73 12.06 65.73 16.86C65.73 21.45 62.46 23.64 58.2 23.64H53.37V30ZM57.87 12.9H53.37V20.64H57.87C60.18 20.64 62.22 19.77 62.22 16.86C62.22 13.74 60.18 12.9 57.87 12.9ZM71.587 30H68.227V9.9H71.587V30ZM79.6111 30.3C76.7911 30.3 75.0511 28.59 75.0511 25.56V15.39H78.4111V24.54C78.4111 26.34 79.0111 27.57 81.2611 27.57C83.7211 27.57 84.5611 25.98 84.5611 23.58V15.39H87.9511V30H84.5611V26.01C84.0211 28.32 82.5211 30.3 79.6111 30.3ZM94.8488 30H91.4888V15.39H94.8488V19.38C95.3888 17.07 96.8288 15.09 99.5888 15.09C102.259 15.09 103.699 16.65 103.849 19.41C104.359 17.1 105.799 15.09 108.589 15.09C111.379 15.09 112.849 16.8 112.849 19.83V30H109.489V20.85C109.489 18.84 108.649 17.82 106.669 17.82C104.689 17.82 103.849 19.41 103.849 21.81V30H100.489V20.85C100.489 18.84 99.6488 17.82 97.6688 17.82C95.6888 17.82 94.8488 19.41 94.8488 21.81V30ZM119.663 30H116.303V9.9H119.663V19.32C120.143 17.04 121.433 15.09 124.343 15.09C127.913 15.09 130.193 18 130.193 22.71C130.193 27.42 127.913 30.33 124.283 30.33C121.373 30.33 120.143 28.38 119.663 26.13V30ZM119.663 23.64C119.663 26.04 120.653 27.6 123.023 27.6C125.153 27.6 126.743 26.01 126.743 22.71C126.743 19.44 125.153 17.82 123.023 17.82C120.653 17.82 119.663 19.41 119.663 21.81V23.64ZM139.328 30.3C135.128 30.3 132.248 27.24 132.248 22.71C132.248 18.15 135.128 15.09 139.328 15.09C143.588 15.09 146.468 18.15 146.468 22.71C146.468 27.24 143.588 30.3 139.328 30.3ZM139.358 27.51C141.548 27.51 143.048 26.07 143.048 22.71C143.048 19.32 141.548 17.88 139.358 17.88C137.198 17.88 135.698 19.32 135.698 22.71C135.698 26.07 137.198 27.51 139.358 27.51ZM152.71 30H149.35V15.39H152.71V19.53C153.25 17.19 154.72 15.09 157.33 15.09C159.16 15.09 160.51 16.29 160.51 18.45C160.51 19.86 160.12 20.91 159.85 21.36H156.4C156.88 20.88 157.33 19.92 157.33 19.08C157.33 18.27 156.94 17.61 155.95 17.61C154.27 17.61 152.71 19.53 152.71 21.96V30Z" fill="white"/>
<g clip-path="url(#clip0_560_571)">
<mask id="mask0_560_571" style="mask-type:luminance" maskUnits="userSpaceOnUse" x="-1" y="0" width="42" height="41">
<path d="M21.3916 22.7788H22.5752V23.9514H21.3916V22.7788ZM19.5589 24.5693H20.7425V25.742H19.5589V24.5693ZM21.3916 24.5693H22.5752V25.742H21.3916V24.5693ZM19.5589 22.7788H20.7425V23.9514H19.5589V22.7788ZM2.5609 10.2376C6.42767 3.60156 13.562 0.000213504 20.7879 0.27489L19.3132 5.72739C17.8785 10.5569 15.5698 10.4764 12.6016 13.1092C11.0494 14.486 9.87011 16.3104 9.29069 18.4528C7.89436 23.6159 10.4462 28.9049 15.112 31.1756V22.4866L18.0894 20.7836L21.0668 19.0805L24.0442 20.7833L27.0216 22.4866V29.8458C28.7792 28.4342 30.12 26.4807 30.7495 24.1496C31.3221 22.0338 31.2313 19.897 30.6034 17.9554C29.4476 14.3799 27.256 13.2267 28.4925 8.16404L29.9279 2.85704C29.9745 2.88339 30.0213 2.90834 30.0684 2.93515C39.6998 8.44431 42.9999 20.646 37.439 30.1886C31.8782 39.7309 19.5627 43.0004 9.9313 37.491C0.300146 31.9817 -2.99991 19.78 2.5609 10.2376Z" fill="white"/>
</mask>
<g mask="url(#mask0_560_571)">
<path d="M43 0H-3V43H43V0Z" fill="#3CA200"/>
</g>
</g>
<defs>
<clipPath id="clip0_560_571">
<rect width="40" height="40" fill="white"/>
</clipPath>
</defs>
</svg>
