<svg width="20" height="14" viewBox="0 0 20 14" fill="none" xmlns="http://www.w3.org/2000/svg">
<path fill-rule="evenodd" clip-rule="evenodd" d="M19.2288 7.16054L0.156575 7.41488L0.132812 5.91504L19.2051 5.6607L19.2288 7.16054Z" fill="#036C5F"/>
<path fill-rule="evenodd" clip-rule="evenodd" d="M18.3883 5.67149C14.5439 5.72275 11.4515 8.86642 11.5039 12.174L11.5158 12.9239L13.1506 12.9021L13.1387 12.1522C13.0989 9.64094 15.505 7.2101 18.4121 7.17133L19.2291 7.16043L19.2053 5.66059L18.3883 5.67149Z" fill="#036C5F"/>
<path fill-rule="evenodd" clip-rule="evenodd" d="M18.4119 7.1716C14.5674 7.22287 11.3768 4.16295 11.3244 0.855389L11.3125 0.105469L12.9473 0.083668L12.9592 0.833589C12.999 3.3449 15.4811 5.71053 18.3882 5.67176L19.2051 5.66086L19.2289 7.16071L18.4119 7.1716Z" fill="#036C5F"/>
</svg>
