<svg width="18" height="14" viewBox="0 0 18 14" fill="none" xmlns="http://www.w3.org/2000/svg">
<path fill-rule="evenodd" clip-rule="evenodd" d="M17.6017 7.16359L0.103832 7.41793L0.0820312 5.91809L17.5799 5.66375L17.6017 7.16359Z" fill="white"/>
<path fill-rule="evenodd" clip-rule="evenodd" d="M16.8312 5.67466C13.3041 5.72593 10.467 8.86959 10.515 12.1771L10.5259 12.9271L12.0258 12.9053L12.0149 12.1553C11.9784 9.64411 14.1859 7.21327 16.853 7.1745L17.6025 7.16361L17.5807 5.66377L16.8312 5.67466Z" fill="white"/>
<path fill-rule="evenodd" clip-rule="evenodd" d="M16.8532 7.17453C13.3261 7.2258 10.3988 4.16588 10.3507 0.858319L10.3398 0.108398L11.8397 0.0865976L11.8506 0.836518C11.8871 3.34783 14.1643 5.71346 16.8314 5.67469L17.581 5.66379L17.6028 7.16364L16.8532 7.17453Z" fill="white"/>
</svg>
