<svg width="110" height="111" viewBox="0 0 110 111" fill="none" xmlns="http://www.w3.org/2000/svg">
<g clip-path="url(#clip0_887_1275)">
<path d="M20.8392 24.4339L24.2962 14.3559C24.5696 13.5356 25.4681 13.1059 26.2884 13.3793C27.1087 13.6528 27.5384 14.5512 27.2649 15.352L25.3508 20.9379C27.968 19.3363 30.761 18.0082 33.6906 17.0121C38.0265 15.5082 42.675 14.7074 47.5186 14.7074C59.2566 14.7074 69.8816 19.4535 77.5576 27.1484C85.2334 34.8437 89.9986 45.4494 89.9986 57.1874C89.9986 62.0312 89.1979 66.6796 87.6939 71.0154C86.1509 75.5076 83.8658 79.6482 80.9947 83.3204C80.4674 84.004 79.4908 84.1212 78.8072 83.5939C78.1236 83.0665 78.0064 82.09 78.5338 81.4064C81.19 78.008 83.2994 74.1603 84.7252 70.0004C86.1119 65.977 86.8541 61.6801 86.8541 57.1884C86.8541 46.3294 82.44 36.4854 75.3311 29.3564C68.2022 22.2275 58.3581 17.8334 47.4991 17.8334C43.0069 17.8334 38.71 18.5756 34.6871 19.9623C31.5816 21.017 28.6715 22.4623 25.9762 24.2201L33.027 25.9389C33.8668 26.1342 34.3747 26.9741 34.1793 27.8139C33.984 28.6537 33.1246 29.1616 32.3043 28.9662L21.9923 26.4662C21.9337 26.4466 21.8556 26.4271 21.797 26.4076C20.9962 26.1537 20.547 25.2553 20.8399 24.4349L20.8392 24.4339ZM104.609 97.1099C104.57 97.0513 104.512 97.0122 104.472 96.9732L96.7966 89.649C96.1716 89.063 95.195 89.0826 94.5896 89.7076C94.0037 90.3326 94.0232 91.3092 94.6482 91.9146L99.531 96.563H47.48C36.621 96.563 26.777 92.1489 19.648 85.04C12.5191 77.9111 8.12504 68.067 8.12504 57.208C8.12504 52.7158 8.88676 48.4189 10.2539 44.396C11.6797 40.2163 13.7891 36.3882 16.4453 32.99C16.9727 32.3064 16.8555 31.3298 16.1719 30.8025C15.4883 30.2751 14.5117 30.3923 13.9844 31.0759C11.1133 34.7478 8.8282 38.9079 7.2852 43.3809C5.8008 47.7168 5 52.3848 5 57.2089C5 68.9469 9.7461 79.5719 17.441 87.2479C25.1168 94.9432 35.742 99.6889 47.48 99.6889H99.257L94.3742 103.947C93.7297 104.513 93.6515 105.509 94.2179 106.154C94.7844 106.798 95.7804 106.876 96.4249 106.31L104.452 99.3178C105.116 98.7514 105.175 97.7553 104.609 97.1108L104.609 97.1099ZM46.6012 62.3249C46.8355 62.5593 47.1676 62.696 47.4996 62.696C47.8316 62.696 48.1441 62.5788 48.398 62.3249L72.441 38.2819H22.558L46.6012 62.3249ZM21.7182 76.1339H73.2802C73.6122 76.1339 73.9247 75.9972 74.1591 75.7628C74.3935 75.5284 74.5302 75.2159 74.5302 74.8839V40.6069L50.5852 64.5329C49.7258 65.3923 48.6125 65.8024 47.4797 65.8024C46.3469 65.8024 45.2336 65.3727 44.3742 64.5329L20.4682 40.6069V74.9039C20.4682 75.2359 20.6049 75.5484 20.8393 75.7828C21.0541 75.9976 21.3666 76.1339 21.7182 76.1339Z" fill="white"/>
</g>
<defs>
<clipPath id="clip0_887_1275">
<rect width="110" height="111" fill="white"/>
</clipPath>
</defs>
</svg>
