<svg width="100" height="101" viewBox="0 0 100 101" fill="none" xmlns="http://www.w3.org/2000/svg">
<g clip-path="url(#clip0_887_1299)">
<path fill-rule="evenodd" clip-rule="evenodd" d="M41.5301 59.72C32.1656 61.5043 22.0128 60.6974 12.9147 57.1786C12.9111 57.1751 12.9076 57.1715 12.9004 57.1715C11.1604 56.4713 10.0844 54.7191 10.2442 52.8495C10.4004 50.9976 10.6383 48.172 10.9011 45.5666C11.2918 41.0029 14.7648 37.3028 19.289 36.6204H19.3067C20.2087 36.4889 21.1107 36.3787 22.0198 36.2792C24.3813 38.9841 27.7655 40.6688 31.4907 40.6688C35.2265 40.6688 38.6178 38.9733 40.9825 36.2578C41.9093 36.3573 42.8398 36.4675 43.7702 36.599H43.7879C44.0614 36.6417 44.3348 36.695 44.6047 36.7554L44.4981 36.8976L44.0614 38.202L44.0294 39.5775L44.4271 40.9282C44.5621 41.2197 44.7148 41.5467 44.8604 41.8594C44.278 42.7267 43.7595 43.633 43.3015 44.5679C42.9499 44.5998 42.5841 44.6318 42.2575 44.6603C42.2432 44.6674 40.908 44.9944 40.908 44.9944L39.7361 45.7088L38.827 46.7395L38.2624 48.0298L38.2588 48.044C37.9144 49.3733 37.68 50.7275 37.5379 52.0888V52.1208L37.6303 53.5248L38.131 54.808L38.9868 55.8814L40.1587 56.6633C40.4535 56.7984 40.7766 56.9477 41.0926 57.097C41.1885 57.9785 41.3348 58.8563 41.5301 59.72ZM31.491 14.8433C37.7978 14.8433 42.9647 20.285 42.9647 27.0452C42.9647 33.8055 37.7977 39.247 31.491 39.247C25.1877 39.247 20.021 33.8053 20.021 27.0452C20.021 20.2848 25.1879 14.8433 31.491 14.8433ZM65.8447 29.6684C67.1621 29.7786 68.263 30.7027 68.6003 31.9716C68.7423 32.4976 68.9021 33.109 69.0371 33.6137C69.0619 33.7132 69.1436 33.7914 69.243 33.8163L69.2537 33.8199C70.5996 34.1646 71.91 34.6445 73.1635 35.2416L73.1706 35.2487C73.2629 35.2914 73.373 35.2842 73.4547 35.2238L73.4618 35.2167C73.888 34.9217 74.4029 34.5627 74.8396 34.2535C75.9192 33.4893 77.3609 33.4893 78.444 34.2499L78.4547 34.2606C79.5094 35.0212 80.5036 35.8565 81.434 36.7664L81.4376 36.7735C82.375 37.7047 82.6236 39.1229 82.0661 40.3136C81.8424 40.8041 81.569 41.3799 81.3488 41.8491C81.3062 41.945 81.3168 42.0552 81.3772 42.137L81.3808 42.1441C82.1904 43.2779 82.89 44.4864 83.4653 45.7517V45.7624C83.5079 45.8548 83.5967 45.9188 83.6997 45.9259L83.7103 45.9294C84.2217 45.9756 84.8502 46.0289 85.3829 46.0716C86.7003 46.1818 87.8083 47.1094 88.1457 48.389L88.1492 48.4032C88.4653 49.665 88.6926 50.9482 88.8168 52.2383L88.8204 52.249C88.9411 53.5641 88.2203 54.8152 87.027 55.3662C86.5405 55.5937 85.9617 55.8602 85.4894 56.0806C85.3971 56.1232 85.3332 56.2157 85.326 56.3187V56.3294C85.2195 57.7156 84.978 59.0912 84.6052 60.4311L84.6016 60.4382C84.5732 60.5377 84.6016 60.6443 84.6726 60.7154L84.6797 60.7226C85.0455 61.0886 85.4894 61.5329 85.8694 61.9097C86.8105 62.8409 87.059 64.2662 86.4979 65.464L86.4908 65.4747C85.9262 66.6476 85.2764 67.7743 84.5377 68.8477V68.8548C83.7813 69.9389 82.4284 70.433 81.1607 70.0882C80.6386 69.9496 80.0278 69.7825 79.5236 69.6474C79.4241 69.619 79.3176 69.6474 79.2466 69.7221L79.2395 69.7292C78.2665 70.7245 77.1976 71.6201 76.0506 72.4092L76.0435 72.4127C75.9582 72.4731 75.9121 72.5691 75.9227 72.6722V72.6828C75.9653 73.1947 76.0222 73.8238 76.0683 74.3569C76.1926 75.6755 75.4682 76.9267 74.2714 77.4812L74.2572 77.4883C73.0711 78.0214 71.8496 78.4657 70.5996 78.814L70.5925 78.8176C69.3176 79.1623 67.9611 78.6683 67.2117 77.5913C66.9028 77.1505 66.5406 76.628 66.2423 76.2016C66.1819 76.1163 66.0825 76.0701 65.9795 76.0807H65.9724C64.5839 76.2158 63.1919 76.2158 61.8069 76.0807H61.7963C61.6969 76.0701 61.5974 76.1163 61.5371 76.2016L61.5335 76.2087C61.2352 76.6316 60.8765 77.147 60.5711 77.5842C59.8183 78.6718 58.4618 79.1694 57.1869 78.8211L57.1691 78.8176C55.9227 78.4621 54.6975 78.0178 53.515 77.4811L53.5079 77.4775C52.3112 76.9231 51.5903 75.6755 51.7075 74.3675C51.7536 73.8272 51.8104 73.1945 51.8602 72.6756C51.8673 72.5725 51.8175 72.473 51.7359 72.4126L51.7252 72.409C50.5782 71.6235 49.5129 70.7242 48.5363 69.7326L48.5328 69.7255C48.4582 69.6508 48.3552 69.6224 48.2558 69.6508H48.2487C47.748 69.7824 47.1407 69.9494 46.6258 70.088C45.3474 70.4364 43.9908 69.9423 43.2379 68.8546L43.2308 68.844C42.4993 67.7706 41.8495 66.6403 41.2884 65.4674L41.2848 65.4603C40.7237 64.266 40.9723 62.8443 41.9027 61.9202C42.2827 61.5363 42.7337 61.0885 43.103 60.7188C43.1776 60.6478 43.206 60.5411 43.174 60.4416V60.4309C42.7976 59.0909 42.5561 57.7154 42.4496 56.3292V56.3186C42.4389 56.2191 42.3786 56.1266 42.2862 56.084L42.2791 56.0804C41.8104 55.8601 41.2422 55.5971 40.7557 55.3731C39.5554 54.8187 38.831 53.5675 38.9517 52.2489L38.9552 52.2347C39.0831 50.9409 39.3103 49.6578 39.637 48.3996V48.3925C39.9744 47.1129 41.0752 46.1887 42.382 46.075C42.9218 46.0288 43.554 45.9755 44.0724 45.9293C44.1789 45.9222 44.2677 45.8582 44.3103 45.7622L44.3139 45.7551C44.8856 44.4862 45.5852 43.2777 46.3913 42.1439L46.3984 42.1368C46.4588 42.055 46.4695 41.9448 46.4269 41.8524L46.4233 41.8453C46.2067 41.3761 45.9368 40.8075 45.7095 40.324C45.1449 39.1262 45.3935 37.7045 46.3345 36.7697L46.3452 36.7591C47.2755 35.8527 48.2734 35.0174 49.3317 34.2604L49.3353 34.2533C50.4148 33.4926 51.853 33.4926 52.9255 34.2497C53.3729 34.5589 53.8914 34.925 54.3139 35.2236C54.3991 35.284 54.5128 35.2947 54.6051 35.2485L54.6122 35.2449C55.8657 34.6442 57.1761 34.1644 58.5256 33.8196L58.5327 33.8161C58.6321 33.7912 58.7102 33.713 58.7351 33.6135L58.7386 33.6064C58.8736 33.1087 59.0334 32.4974 59.1719 31.982C59.5057 30.7025 60.6136 29.7712 61.9311 29.661H61.9454C63.2415 29.565 64.5413 29.565 65.8373 29.6645L65.8447 29.6684ZM63.8773 39.5036C55.7949 39.5036 49.2364 46.0721 49.2364 54.1577C49.2364 62.2474 55.7953 68.8118 63.8773 68.8118C71.9561 68.8118 78.5155 62.247 78.5155 54.1577C78.5155 46.0716 71.9566 39.5036 63.8773 39.5036ZM65.2267 46.0898L66.5904 50.2911H71.008C71.6224 50.2911 72.1657 50.6892 72.3575 51.2756C72.5457 51.8621 72.3397 52.5019 71.839 52.8644L68.2701 55.4626L69.6337 59.6639C69.8255 60.2503 69.616 60.8937 69.1188 61.2562C68.6181 61.6188 67.9469 61.6188 67.4463 61.2562L63.8774 58.658L60.3049 61.2562C59.8077 61.6188 59.133 61.6188 58.6324 61.2562C58.1352 60.8937 57.9257 60.2503 58.1174 59.6639L59.4811 55.4626L55.9122 52.8644C55.415 52.5018 55.2055 51.862 55.3937 51.2756C55.5855 50.6891 56.1288 50.2911 56.7467 50.2911H61.1608L62.5244 46.0898C62.7162 45.5034 63.2595 45.1089 63.8774 45.1089C64.4918 45.1089 65.0349 45.5034 65.2267 46.0898ZM81.5267 71.5391L89.6056 86.7519C89.8897 87.2815 89.8044 87.932 89.4031 88.3763C88.9983 88.8206 88.3627 88.9627 87.8087 88.7317L80.8023 85.8243L79.2895 93.267C79.1723 93.8535 78.6965 94.3013 78.1034 94.3902C77.5104 94.4755 76.9244 94.1805 76.6439 93.6509L69.5771 80.3435L70.9621 80.1907L70.9798 80.1836C72.2973 79.8175 73.5899 79.3483 74.8399 78.7867C74.847 78.7796 74.8577 78.776 74.8683 78.7724L76.0367 77.9905L76.896 76.9171L77.3968 75.6339L77.4855 74.2264C77.4571 73.9065 77.4252 73.5475 77.3932 73.2027C78.2348 72.5878 79.0374 71.916 79.7867 71.191C80.1276 71.2834 80.4791 71.3794 80.7988 71.4647C80.8059 71.4611 81.1716 71.5036 81.5267 71.5391ZM58.1777 80.3432L51.1074 93.6507C50.8268 94.1802 50.2409 94.4753 49.6478 94.39C49.0548 94.3011 48.5825 93.8532 48.4617 93.2668L46.9489 85.824L39.9426 88.7314C39.3886 88.9624 38.7529 88.8203 38.3481 88.376C37.9468 87.9317 37.8652 87.2813 38.1457 86.7516L46.221 71.5461L46.9987 71.4608C47.3076 71.3755 47.6556 71.2831 47.9894 71.1907C48.7422 71.9157 49.5412 72.5876 50.3864 73.2024C50.3544 73.5507 50.3189 73.9168 50.2941 74.2473C50.2941 74.2615 50.3864 75.6335 50.3864 75.6335L50.8871 76.9166L51.7429 77.9865L52.9148 78.7685L52.929 78.7756C54.1755 79.3443 55.4646 79.8134 56.7856 80.1867C56.7962 80.1902 56.8033 80.1902 56.814 80.1938L58.1777 80.3432Z" fill="black"/>
</g>
<defs>
<clipPath id="clip0_887_1299">
<rect width="100" height="101" fill="white"/>
</clipPath>
</defs>
</svg>
