<svg width="110" height="117" viewBox="0 0 110 117" fill="none" xmlns="http://www.w3.org/2000/svg">
<g clip-path="url(#clip0_887_1265)">
<path d="M98.6282 51.6331H98.4681C97.6321 49.2503 95.5892 47.43 93.0736 46.9065C91.7298 37.9143 87.2377 29.9295 80.7496 24.1055C81.6675 21.4219 80.523 18.2539 78.1051 16.7539C71.191 12.3359 63.2031 10 55.0001 10C46.5782 10 38.4141 12.4492 31.3911 17.0781C29.0161 18.5937 27.9536 21.7773 28.8989 24.4219C22.5981 30.2149 18.2429 38.0739 16.9219 46.9059C14.4063 47.4293 12.3672 49.2497 11.5274 51.6325H11.3672C7.8594 51.6325 5 54.488 5 57.9958V71.5738C5 75.0855 7.8594 77.9371 11.3711 77.9371H11.5313C12.3203 80.1832 14.1836 81.9332 16.504 82.5621C16.129 93.3281 24.8165 102.374 35.617 102.355H40.0936C41.5663 106.781 47.5858 110 54.9996 110C63.5582 110 70.2616 105.711 70.2616 100.234C70.2616 94.7575 63.5585 90.4684 54.9996 90.4684C47.5855 90.4684 41.5656 93.6911 40.0896 98.109H35.613C27.0974 98.1363 20.324 90.8981 20.75 82.429C23.6289 81.4524 25.7109 78.7298 25.7109 75.5267V54.0427C25.7109 50.9919 23.8281 48.3786 21.164 47.2927C22.3632 39.6482 26.1249 32.8397 31.543 27.7617C33.6407 29.082 36.3321 29.0781 38.4258 27.6953C43.3516 24.4492 49.0858 22.7305 54.9998 22.7305C60.7771 22.7305 66.4018 24.3789 71.2658 27.4922C73.4142 28.8672 76.1096 28.8008 78.1564 27.4766C83.7384 32.5821 87.6212 39.5036 88.8404 47.2886C86.1763 48.3745 84.2935 50.9917 84.2935 54.0386V75.5306C84.2935 79.5501 87.5669 82.8197 91.5904 82.8197C94.7701 82.8197 97.4771 80.7767 98.4732 77.9408H98.6333C102.145 77.9408 105.004 75.0853 105.004 71.5775V57.9995C105.001 54.4878 102.141 51.6323 98.6294 51.6323L98.6282 51.6331ZM54.9992 94.7151C61.4914 94.7151 66.0112 97.6253 66.0112 100.235C66.0112 102.844 61.4878 105.754 54.9992 105.754C48.507 105.754 43.9872 102.844 43.9872 100.235C43.9872 97.6253 48.5067 94.7151 54.9992 94.7151Z" fill="black"/>
<path d="M55.0001 36.9302C42.5661 36.9302 32.4531 47.0082 32.4531 59.3952C32.4531 71.7822 42.5661 81.8602 55.0001 81.8602C58.2735 81.8602 61.4142 81.1805 64.3517 79.8407L72.879 82.8602C74.7579 83.5555 76.3634 81.4032 75.4532 79.7118C74.2423 75.8524 74.4298 71.5556 75.9884 67.6218C77.0236 65.0007 77.5509 62.2351 77.5509 59.3952C77.547 47.0082 67.4341 36.9302 55.0001 36.9302ZM72.0391 66.0632C70.5743 69.7702 70.0977 73.7507 70.6329 77.5632L64.9376 75.5476C64.3907 75.3523 63.7892 75.3913 63.2696 75.653C60.6915 76.9538 57.9102 77.6178 55.0001 77.6178C44.9101 77.6178 36.6991 69.442 36.6991 59.3948C36.6991 49.3476 44.91 41.1718 55.0001 41.1718C65.0902 41.1718 73.3011 49.3476 73.3011 59.3948C73.3011 61.6956 72.875 63.9382 72.0391 66.0632Z" fill="black"/>
<path d="M57.7617 59.957C57.7617 63.6328 52.2383 63.6328 52.2383 59.957C52.2383 56.2773 57.7617 56.2773 57.7617 59.957Z" fill="black"/>
<path d="M47.1445 59.957C47.1445 63.6328 41.6211 63.6328 41.6211 59.957C41.6211 56.2773 47.1445 56.2773 47.1445 59.957Z" fill="black"/>
<path d="M68.3789 59.957C68.3789 63.6328 62.8555 63.6328 62.8555 59.957C62.8555 56.2773 68.3789 56.2773 68.3789 59.957Z" fill="black"/>
</g>
<defs>
<clipPath id="clip0_887_1265">
<rect width="110" height="117" fill="white"/>
</clipPath>
</defs>
</svg>
