<svg width="90" height="90" viewBox="0 0 90 90" fill="none" xmlns="http://www.w3.org/2000/svg">
<g clip-path="url(#clip0_3872_1215)">
<path fill-rule="evenodd" clip-rule="evenodd" d="M27.944 31.6578C27.97 31.6967 28.0089 31.7227 28.0479 31.7227C28.0998 31.7227 28.1388 31.6967 28.1648 31.6578C29.9048 28.5933 32.5797 26.217 36.2285 27.4506C39.0463 28.3985 41.072 31.1773 41.072 34.4496C41.072 39.1112 36.2935 42.8899 33.216 45.8895L28.8919 49.8759C28.4115 50.3044 27.6843 50.3044 27.2169 49.8759L22.8928 45.8895C19.8153 42.8899 15.0238 39.1112 15.0238 34.4496C15.0238 31.0864 17.1793 28.2427 20.101 27.3727C23.6719 26.3209 26.256 28.6972 27.944 31.6578ZM63.9648 61.2119C61.8872 69.7692 54.187 76.1189 44.9935 76.1189C35.8 76.1189 28.0869 69.7692 26.0092 61.2119C25.8534 60.5497 25.9962 59.9134 26.4118 59.381C26.8403 58.8357 27.4246 58.563 28.0998 58.563H61.8742C62.5624 58.563 63.1467 58.8357 63.5623 59.381C63.9908 59.9134 64.1206 60.5497 63.9648 61.2119ZM44.9935 0C57.4203 0 68.6784 5.03823 76.8201 13.1799C84.9618 21.3216 90 32.5667 90 44.9935C90 57.4203 84.9618 68.6784 76.8201 76.8201C68.6784 84.9618 57.4203 90 44.9935 90C32.5667 90 21.3216 84.9618 13.1799 76.8201C5.03823 68.6784 0 57.4203 0 44.9935C0 32.5667 5.03823 21.3216 13.1799 13.1799C21.3216 5.03823 32.5667 0 44.9935 0ZM72.8596 17.1274C65.7308 9.99856 55.8751 5.58361 44.9935 5.58361C34.112 5.58361 24.2562 9.99856 17.1274 17.1274C9.99856 24.2562 5.58361 34.112 5.58361 44.9935C5.58361 55.8751 9.99856 65.7308 17.1274 72.8596C24.2562 79.9885 34.112 84.4034 44.9935 84.4034C55.8751 84.4034 65.7308 79.9885 72.8596 72.8596C79.9885 65.7308 84.4034 55.8751 84.4034 44.9935C84.4034 34.112 79.9885 24.2562 72.8596 17.1274ZM61.8352 31.6578C61.8612 31.6967 61.9002 31.7227 61.9391 31.7227C61.9911 31.7227 62.03 31.6967 62.043 31.6578C63.796 28.5933 66.4579 26.217 70.1198 27.4506C72.9245 28.3985 74.9632 31.1773 74.9632 34.4496C74.9632 39.1112 70.1847 42.8899 67.1072 45.8895L62.7831 49.8759C62.3027 50.3044 61.5755 50.3044 61.0951 49.8759L56.771 45.8895C53.6936 42.8899 48.915 39.1112 48.915 34.4496C48.915 31.0864 51.0576 28.2427 53.9922 27.3727C57.5631 26.3209 60.1472 28.6972 61.8352 31.6578Z" fill="white"/>
</g>
<defs>
<clipPath id="clip0_3872_1215">
<rect width="90" height="90" fill="white"/>
</clipPath>
</defs>
</svg>
